{
	"asset":{
		"generator":"Khronos glTF Blender I/O v4.5.47",
		"version":"2.0"
	},
	"extensionsUsed":[
		"KHR_materials_clearcoat",
		"KHR_materials_sheen"
	],
	"scene":0,
	"scenes":[
		{
			"name":"Scene",
			"nodes":[
				0
			]
		}
	],
	"nodes":[
		{
			"mesh":0,
			"name":"B\u00e9zierCurve",
			"rotation":[
				-0.5091332793235779,
				-0.4906967580318451,
				-0.4906969368457794,
				0.5091331601142883
			],
			"scale":[
				0.6519128680229187,
				0.6519128680229187,
				0.6519128680229187
			],
			"translation":[
				-1.0632439851760864,
				-0.19489407539367676,
				-1.6647350788116455
			]
		}
	],
	"materials":[
		{
			"alphaMode":"BLEND",
			"doubleSided":true,
			"extensions":{
				"KHR_materials_clearcoat":{
					"clearcoatRoughnessFactor":0.12090909481048584
				},
				"KHR_materials_sheen":{
					"sheenColorFactor":[
						1.0,
						1.0,
						1.0
					],
					"sheenRoughnessFactor":0.4745454490184784
				}
			},
			"name":"Material.001",
			"pbrMetallicRoughness":{
				"baseColorTexture":{
					"index":0
				},
				"metallicFactor":0,
				"roughnessFactor":0.5
			}
		}
	],
	"meshes":[
		{
			"name":"Mesh.001",
			"primitives":[
				{
					"attributes":{
						"POSITION":0,
						"NORMAL":1,
						"TEXCOORD_0":2
					},
					"indices":3,
					"material":0
				}
			]
		}
	],
	"textures":[
		{
			"sampler":0,
			"source":0
		}
	],
	"images":[
		{
			"mimeType":"image/png",
			"name":"dirty-concrete-wall-background",
			"uri":"dirty-concrete-wall-background.png"
		}
	],
	"accessors":[
		{
			"bufferView":0,
			"componentType":5126,
			"count":4074,
			"max":[
				2.7822961807250977,
				7.345269680023193,
				0.37512651085853577
			],
			"min":[
				-2.5442285537719727,
				-7.242569446563721,
				-0.0006329949828796089
			],
			"type":"VEC3"
		},
		{
			"bufferView":1,
			"componentType":5126,
			"count":4074,
			"type":"VEC3"
		},
		{
			"bufferView":2,
			"componentType":5126,
			"count":4074,
			"type":"VEC2"
		},
		{
			"bufferView":3,
			"componentType":5123,
			"count":8004,
			"type":"SCALAR"
		}
	],
	"bufferViews":[
		{
			"buffer":0,
			"byteLength":48888,
			"byteOffset":0,
			"target":34962
		},
		{
			"buffer":0,
			"byteLength":48888,
			"byteOffset":48888,
			"target":34962
		},
		{
			"buffer":0,
			"byteLength":32592,
			"byteOffset":97776,
			"target":34962
		},
		{
			"buffer":0,
			"byteLength":16008,
			"byteOffset":130368,
			"target":34963
		}
	],
	"samplers":[
		{
			"magFilter":9729,
			"minFilter":9987
		}
	],
	"buffers":[
		{
			"byteLength":146376,
			"uri":"morsing1.bin"
		}
	]
}
